<svg width="180" height="144" viewBox="0 0 180 144" fill="none" xmlns="http://www.w3.org/2000/svg">
<rect x="6" width="157" height="144" rx="20" fill="#FF005C"/>
<path d="M130.719 36.517L130.676 67.237L115.316 67.2157L115.35 42.6397L114.583 42.2547L77.1783 62.6828C69.6632 66.8538 63.9429 68.9365 60.0176 68.9311C51.399 68.9191 45.0883 66.0517 41.0855 60.3288L41.1325 26.4088L55.9805 26.4294L55.9438 52.9254L56.7113 53.3105L98.0872 30.3278C104.065 27.0081 108.931 25.3508 112.686 25.356C121.561 25.3683 127.572 29.0886 130.719 36.517ZM130.65 86.142L130.607 116.862L115.247 116.841L115.281 92.2647L114.514 91.8796L77.1095 112.308C69.5944 116.479 63.8742 118.561 59.9488 118.556C51.3302 118.544 45.0195 115.677 41.0167 109.954L41.0638 76.0338L55.9117 76.0544L55.875 102.55L56.6425 102.935L98.0184 79.9527C103.996 76.633 108.863 74.9758 112.617 74.981C121.492 74.9933 127.503 78.7136 130.65 86.142Z" fill="white"/>
</svg>
