<svg width="138" height="116" viewBox="0 0 138 116" fill="none" xmlns="http://www.w3.org/2000/svg">
<rect x="8.62207" width="120.946" height="116" rx="20" fill="#DE7616"/>
<path d="M102.186 28.8999L102.155 51.9399L90.6353 51.9232L90.6597 33.4912L90.0841 33.2024L62.0317 48.5218C56.3956 51.6496 52.1055 53.2114 49.1615 53.2071C42.6975 53.1978 37.9644 51.0469 34.9621 46.7545L34.9958 21.3146L46.1318 21.3307L46.1054 41.2027L46.6811 41.4915L77.7119 24.2565C82.1952 21.767 85.8449 20.5242 88.6609 20.5283C95.3169 20.538 99.8252 23.3285 102.186 28.8999ZM102.136 66.1187L102.106 89.1586L90.5859 89.1419L90.6104 70.71L90.0347 70.4211L61.9824 85.7405C56.3463 88.8683 52.0562 90.4301 49.1122 90.4258C42.6482 90.4165 37.9151 88.2656 34.9127 83.9733L34.9465 58.5333L46.0824 58.5494L46.0561 78.4214L46.6317 78.7102L77.6626 61.4752C82.1459 58.9857 85.7956 57.743 88.6115 57.747C95.2675 57.7567 99.7758 60.5472 102.136 66.1187Z" fill="white"/>
</svg>
