<svg width="237" height="39" viewBox="0 0 237 39" fill="none" xmlns="http://www.w3.org/2000/svg">
<path d="M59.9432 14.125C59.8371 13.1326 59.3902 12.3598 58.6023 11.8068C57.822 11.2538 56.8068 10.9773 55.5568 10.9773C54.678 10.9773 53.9242 11.1098 53.2955 11.375C52.6667 11.6402 52.1856 12 51.8523 12.4545C51.5189 12.9091 51.3485 13.428 51.3409 14.0114C51.3409 14.4962 51.4508 14.9167 51.6705 15.2727C51.8977 15.6288 52.2045 15.9318 52.5909 16.1818C52.9773 16.4242 53.4053 16.6288 53.875 16.7955C54.3447 16.9621 54.8182 17.1023 55.2955 17.2159L57.4773 17.7614C58.3561 17.9659 59.2008 18.2424 60.0114 18.5909C60.8295 18.9394 61.5606 19.3788 62.2045 19.9091C62.8561 20.4394 63.3712 21.0795 63.75 21.8295C64.1288 22.5795 64.3182 23.4583 64.3182 24.4659C64.3182 25.8295 63.9697 27.0303 63.2727 28.0682C62.5758 29.0985 61.5682 29.9053 60.25 30.4886C58.9394 31.0644 57.3523 31.3523 55.4886 31.3523C53.678 31.3523 52.1061 31.072 50.7727 30.5114C49.447 29.9508 48.4091 29.1326 47.6591 28.0568C46.9167 26.9811 46.5152 25.6705 46.4545 24.125H50.6023C50.6629 24.9356 50.9129 25.6098 51.3523 26.1477C51.7917 26.6856 52.3636 27.0871 53.0682 27.3523C53.7803 27.6174 54.5758 27.75 55.4545 27.75C56.3712 27.75 57.1742 27.6136 57.8636 27.3409C58.5606 27.0606 59.1061 26.6742 59.5 26.1818C59.8939 25.6818 60.0947 25.0985 60.1023 24.4318C60.0947 23.8258 59.9167 23.3258 59.5682 22.9318C59.2197 22.5303 58.7311 22.197 58.1023 21.9318C57.4811 21.6591 56.7538 21.4167 55.9205 21.2045L53.2727 20.5227C51.3561 20.0303 49.8409 19.2841 48.7273 18.2841C47.6212 17.2765 47.0682 15.9394 47.0682 14.2727C47.0682 12.9015 47.4394 11.7008 48.1818 10.6705C48.9318 9.64015 49.9508 8.84091 51.2386 8.27273C52.5265 7.69697 53.9848 7.40909 55.6136 7.40909C57.2652 7.40909 58.7121 7.69697 59.9545 8.27273C61.2045 8.84091 62.1856 9.63258 62.8977 10.6477C63.6098 11.6553 63.9773 12.8144 64 14.125H59.9432ZM75.5085 31.3409C73.804 31.3409 72.3267 30.9659 71.0767 30.2159C69.8267 29.4659 68.857 28.4167 68.1676 27.0682C67.4858 25.7197 67.1449 24.1439 67.1449 22.3409C67.1449 20.5379 67.4858 18.9583 68.1676 17.6023C68.857 16.2462 69.8267 15.1932 71.0767 14.4432C72.3267 13.6932 73.804 13.3182 75.5085 13.3182C77.2131 13.3182 78.6903 13.6932 79.9403 14.4432C81.1903 15.1932 82.1563 16.2462 82.8381 17.6023C83.5275 18.9583 83.8722 20.5379 83.8722 22.3409C83.8722 24.1439 83.5275 25.7197 82.8381 27.0682C82.1563 28.4167 81.1903 29.4659 79.9403 30.2159C78.6903 30.9659 77.2131 31.3409 75.5085 31.3409ZM75.5312 28.0455C76.4555 28.0455 77.2282 27.7917 77.8494 27.2841C78.4706 26.7689 78.9328 26.0795 79.2358 25.2159C79.5464 24.3523 79.7017 23.3902 79.7017 22.3295C79.7017 21.2614 79.5464 20.2955 79.2358 19.4318C78.9328 18.5606 78.4706 17.8674 77.8494 17.3523C77.2282 16.8371 76.4555 16.5795 75.5312 16.5795C74.5843 16.5795 73.7964 16.8371 73.1676 17.3523C72.5464 17.8674 72.0805 18.5606 71.7699 19.4318C71.4669 20.2955 71.3153 21.2614 71.3153 22.3295C71.3153 23.3902 71.4669 24.3523 71.7699 25.2159C72.0805 26.0795 72.5464 26.7689 73.1676 27.2841C73.7964 27.7917 74.5843 28.0455 75.5312 28.0455ZM98.4886 23.6591V13.5455H102.602V31H98.6136V27.8977H98.4318C98.0379 28.875 97.3902 29.6742 96.4886 30.2955C95.5947 30.9167 94.4924 31.2273 93.1818 31.2273C92.0379 31.2273 91.0265 30.9735 90.1477 30.4659C89.2765 29.9508 88.5947 29.2045 88.1023 28.2273C87.6098 27.2424 87.3636 26.053 87.3636 24.6591V13.5455H91.4773V24.0227C91.4773 25.1288 91.7803 26.0076 92.3864 26.6591C92.9924 27.3106 93.7879 27.6364 94.7727 27.6364C95.3788 27.6364 95.9659 27.4886 96.5341 27.1932C97.1023 26.8977 97.5682 26.4583 97.9318 25.875C98.303 25.2841 98.4886 24.5455 98.4886 23.6591ZM110.946 20.7727V31H106.832V13.5455H110.764V16.5114H110.969C111.37 15.5341 112.01 14.7576 112.889 14.1818C113.776 13.6061 114.87 13.3182 116.173 13.3182C117.378 13.3182 118.427 13.5758 119.321 14.0909C120.223 14.6061 120.92 15.3523 121.412 16.3295C121.912 17.3068 122.158 18.4924 122.151 19.8864V31H118.037V20.5227C118.037 19.3561 117.734 18.4432 117.128 17.7841C116.529 17.125 115.7 16.7955 114.639 16.7955C113.92 16.7955 113.279 16.9545 112.719 17.2727C112.166 17.5833 111.73 18.0341 111.412 18.625C111.101 19.2159 110.946 19.9318 110.946 20.7727ZM132.81 31.3068C131.438 31.3068 130.211 30.9545 129.128 30.25C128.045 29.5455 127.188 28.5227 126.56 27.1818C125.931 25.8409 125.616 24.2121 125.616 22.2955C125.616 20.3561 125.935 18.7197 126.571 17.3864C127.215 16.0455 128.082 15.0341 129.173 14.3523C130.264 13.6629 131.48 13.3182 132.821 13.3182C133.844 13.3182 134.685 13.4924 135.344 13.8409C136.003 14.1818 136.526 14.5947 136.912 15.0795C137.298 15.5568 137.598 16.0076 137.81 16.4318H137.98V7.72727H142.105V31H138.06V28.25H137.81C137.598 28.6742 137.291 29.125 136.889 29.6023C136.488 30.072 135.957 30.4735 135.298 30.8068C134.639 31.1402 133.81 31.3068 132.81 31.3068ZM133.957 27.9318C134.829 27.9318 135.571 27.697 136.185 27.2273C136.798 26.75 137.264 26.0871 137.582 25.2386C137.901 24.3902 138.06 23.4015 138.06 22.2727C138.06 21.1439 137.901 20.1629 137.582 19.3295C137.272 18.4962 136.81 17.8485 136.196 17.3864C135.59 16.9242 134.844 16.6932 133.957 16.6932C133.041 16.6932 132.276 16.9318 131.662 17.4091C131.048 17.8864 130.586 18.5455 130.276 19.3864C129.965 20.2273 129.81 21.1894 129.81 22.2727C129.81 23.3636 129.965 24.3371 130.276 25.1932C130.594 26.0417 131.06 26.7121 131.673 27.2045C132.295 27.6894 133.056 27.9318 133.957 27.9318ZM159.318 14.125C159.212 13.1326 158.765 12.3598 157.977 11.8068C157.197 11.2538 156.182 10.9773 154.932 10.9773C154.053 10.9773 153.299 11.1098 152.67 11.375C152.042 11.6402 151.561 12 151.227 12.4545C150.894 12.9091 150.723 13.428 150.716 14.0114C150.716 14.4962 150.826 14.9167 151.045 15.2727C151.273 15.6288 151.58 15.9318 151.966 16.1818C152.352 16.4242 152.78 16.6288 153.25 16.7955C153.72 16.9621 154.193 17.1023 154.67 17.2159L156.852 17.7614C157.731 17.9659 158.576 18.2424 159.386 18.5909C160.205 18.9394 160.936 19.3788 161.58 19.9091C162.231 20.4394 162.746 21.0795 163.125 21.8295C163.504 22.5795 163.693 23.4583 163.693 24.4659C163.693 25.8295 163.345 27.0303 162.648 28.0682C161.951 29.0985 160.943 29.9053 159.625 30.4886C158.314 31.0644 156.727 31.3523 154.864 31.3523C153.053 31.3523 151.481 31.072 150.148 30.5114C148.822 29.9508 147.784 29.1326 147.034 28.0568C146.292 26.9811 145.89 25.6705 145.83 24.125H149.977C150.038 24.9356 150.288 25.6098 150.727 26.1477C151.167 26.6856 151.739 27.0871 152.443 27.3523C153.155 27.6174 153.951 27.75 154.83 27.75C155.746 27.75 156.549 27.6136 157.239 27.3409C157.936 27.0606 158.481 26.6742 158.875 26.1818C159.269 25.6818 159.47 25.0985 159.477 24.4318C159.47 23.8258 159.292 23.3258 158.943 22.9318C158.595 22.5303 158.106 22.197 157.477 21.9318C156.856 21.6591 156.129 21.4167 155.295 21.2045L152.648 20.5227C150.731 20.0303 149.216 19.2841 148.102 18.2841C146.996 17.2765 146.443 15.9394 146.443 14.2727C146.443 12.9015 146.814 11.7008 147.557 10.6705C148.307 9.64015 149.326 8.84091 150.614 8.27273C151.902 7.69697 153.36 7.40909 154.989 7.40909C156.64 7.40909 158.087 7.69697 159.33 8.27273C160.58 8.84091 161.561 9.63258 162.273 10.6477C162.985 11.6553 163.352 12.8144 163.375 14.125H159.318ZM174.884 31.3409C173.141 31.3409 171.645 30.9583 170.395 30.1932C169.152 29.428 168.194 28.3712 167.52 27.0227C166.853 25.6667 166.52 24.1061 166.52 22.3409C166.52 20.5682 166.861 19.0038 167.543 17.6477C168.224 16.2841 169.187 15.2235 170.429 14.4659C171.679 13.7008 173.156 13.3182 174.861 13.3182C176.277 13.3182 177.531 13.5795 178.622 14.1023C179.721 14.6174 180.596 15.3485 181.247 16.2955C181.899 17.2348 182.27 18.3333 182.361 19.5909H178.429C178.27 18.75 177.891 18.0492 177.293 17.4886C176.702 16.9205 175.91 16.6364 174.918 16.6364C174.077 16.6364 173.338 16.8636 172.702 17.3182C172.065 17.7652 171.569 18.4091 171.213 19.25C170.865 20.0909 170.69 21.0985 170.69 22.2727C170.69 23.4621 170.865 24.4848 171.213 25.3409C171.562 26.1894 172.05 26.8447 172.679 27.3068C173.315 27.7614 174.062 27.9886 174.918 27.9886C175.524 27.9886 176.065 27.875 176.543 27.6477C177.027 27.4129 177.433 27.0758 177.759 26.6364C178.084 26.197 178.308 25.6629 178.429 25.0341H182.361C182.262 26.2689 181.899 27.3636 181.27 28.3182C180.641 29.2652 179.785 30.0076 178.702 30.5455C177.618 31.0758 176.346 31.3409 174.884 31.3409ZM185.739 31V13.5455H189.727V16.4545H189.909C190.227 15.447 190.773 14.6705 191.545 14.125C192.326 13.572 193.216 13.2955 194.216 13.2955C194.443 13.2955 194.697 13.3068 194.977 13.3295C195.265 13.3447 195.504 13.3712 195.693 13.4091V17.1932C195.519 17.1326 195.242 17.0795 194.864 17.0341C194.492 16.9811 194.133 16.9545 193.784 16.9545C193.034 16.9545 192.36 17.1174 191.761 17.4432C191.17 17.7614 190.705 18.2045 190.364 18.7727C190.023 19.3409 189.852 19.9962 189.852 20.7386V31H185.739ZM198.426 31V13.5455H202.54V31H198.426ZM200.494 11.0682C199.843 11.0682 199.282 10.8523 198.812 10.4205C198.343 9.98106 198.108 9.45454 198.108 8.84091C198.108 8.2197 198.343 7.69318 198.812 7.26136C199.282 6.82197 199.843 6.60227 200.494 6.60227C201.153 6.60227 201.714 6.82197 202.176 7.26136C202.646 7.69318 202.881 8.2197 202.881 8.84091C202.881 9.45454 202.646 9.98106 202.176 10.4205C201.714 10.8523 201.153 11.0682 200.494 11.0682ZM206.77 37.5455V13.5455H210.815V16.4318H211.054C211.266 16.0076 211.565 15.5568 211.952 15.0795C212.338 14.5947 212.861 14.1818 213.52 13.8409C214.179 13.4924 215.02 13.3182 216.043 13.3182C217.391 13.3182 218.607 13.6629 219.69 14.3523C220.781 15.0341 221.645 16.0455 222.281 17.3864C222.925 18.7197 223.247 20.3561 223.247 22.2955C223.247 24.2121 222.933 25.8409 222.304 27.1818C221.675 28.5227 220.819 29.5455 219.736 30.25C218.652 30.9545 217.425 31.3068 216.054 31.3068C215.054 31.3068 214.224 31.1402 213.565 30.8068C212.906 30.4735 212.376 30.072 211.974 29.6023C211.58 29.125 211.274 28.6742 211.054 28.25H210.884V37.5455H206.77ZM210.804 22.2727C210.804 23.4015 210.963 24.3902 211.281 25.2386C211.607 26.0871 212.073 26.75 212.679 27.2273C213.293 27.697 214.035 27.9318 214.906 27.9318C215.815 27.9318 216.577 27.6894 217.19 27.2045C217.804 26.7121 218.266 26.0417 218.577 25.1932C218.895 24.3371 219.054 23.3636 219.054 22.2727C219.054 21.1894 218.899 20.2273 218.588 19.3864C218.277 18.5455 217.815 17.8864 217.202 17.4091C216.588 16.9318 215.823 16.6932 214.906 16.6932C214.027 16.6932 213.281 16.9242 212.668 17.3864C212.054 17.8485 211.588 18.4962 211.27 19.3295C210.959 20.1629 210.804 21.1439 210.804 22.2727ZM235.486 13.5455V16.7273H225.452V13.5455H235.486ZM227.929 9.36364H232.043V25.75C232.043 26.303 232.126 26.7273 232.293 27.0227C232.467 27.3106 232.694 27.5076 232.974 27.6136C233.255 27.7197 233.565 27.7727 233.906 27.7727C234.164 27.7727 234.399 27.7538 234.611 27.7159C234.83 27.678 234.997 27.6439 235.111 27.6136L235.804 30.8295C235.584 30.9053 235.27 30.9886 234.861 31.0795C234.459 31.1705 233.967 31.2235 233.384 31.2386C232.353 31.2689 231.425 31.1136 230.599 30.7727C229.774 30.4242 229.118 29.8864 228.634 29.1591C228.156 28.4318 227.921 27.5227 227.929 26.4318V9.36364Z" fill="white"/>
<path d="M32.4296 11.6289L32.4189 19.3089L28.579 19.3036L28.5875 13.1596L28.3956 13.0633L19.0445 18.1704C17.1657 19.2131 15.7357 19.7338 14.7543 19.7324C12.5997 19.7294 11.022 19.0126 10.0213 17.5818L10.0331 9.10185L13.7451 9.107L13.7359 15.731L13.9278 15.8273L24.2717 10.0816C25.7662 9.25166 26.9828 8.83735 27.9215 8.83865C30.1401 8.84172 31.6428 9.7718 32.4296 11.6289ZM32.4124 24.0351L32.4018 31.7151L28.5618 31.7098L28.5703 25.5658L28.3784 25.4695L19.0273 30.5766C17.1485 31.6193 15.7185 32.14 14.7371 32.1386C12.5825 32.1357 11.0048 31.4188 10.0041 29.9881L10.0159 21.5081L13.7279 21.5132L13.7187 28.1372L13.9106 28.2335L24.2545 22.4878C25.749 21.6579 26.9656 21.2436 27.9043 21.2449C30.1229 21.248 31.6256 22.178 32.4124 24.0351Z" fill="#DE7616"/>
</svg>
